<svg id="Слой_1" data-name="Слой 1" xmlns="http://www.w3.org/2000/svg" xmlns:xlink="http://www.w3.org/1999/xlink" viewBox="0 0 25.91 17.16"><defs><style>.cls-1{fill:url(#Безымянный_градиент_70);}</style><linearGradient id="Безымянный_градиент_70" x1="-1.04" y1="-11.45" x2="20.4" y2="22.7" gradientUnits="userSpaceOnUse"><stop offset="0" stop-color="#15fefd"/><stop offset="0.16" stop-color="#4abefd"/><stop offset="0.33" stop-color="#7985fd"/><stop offset="0.49" stop-color="#9f56fd"/><stop offset="0.64" stop-color="#be31fd"/><stop offset="0.78" stop-color="#d317fd"/><stop offset="0.9" stop-color="#e007fd"/><stop offset="1" stop-color="#e501fd"/></linearGradient></defs><path class="cls-1" d="M0,11.4A16.81,16.81,0,0,1,1.72,4.13a9.39,9.39,0,0,1,1.76-2.6A4.89,4.89,0,0,1,8.26.15a7.33,7.33,0,0,1,2.56,1.12,2.74,2.74,0,0,0,1.66.51c.43,0,.86,0,1.28,0A2.65,2.65,0,0,0,15,1.3,7.24,7.24,0,0,1,17.9.09a4.83,4.83,0,0,1,4.07,1,8.09,8.09,0,0,1,1.94,2.48,16.08,16.08,0,0,1,1.76,5.17,17.75,17.75,0,0,1,.22,3.71,11.25,11.25,0,0,1-.48,3.16,2.14,2.14,0,0,1-1.56,1.48A2.24,2.24,0,0,1,22,16.67a17.12,17.12,0,0,1-2.21-2c-.47-.48-.92-1-1.36-1.5a2,2,0,0,0-1.53-.69H9a1.88,1.88,0,0,0-1.49.67,26.62,26.62,0,0,1-2.44,2.54A6.74,6.74,0,0,1,3.32,17a2.06,2.06,0,0,1-2.58-.86,4.82,4.82,0,0,1-.53-1.7A17.14,17.14,0,0,1,0,11.4ZM6.33,4.89c0,.25,0,.49,0,.73s0,.19-.19.19H4.72c-.1,0-.17,0-.22.12a1.74,1.74,0,0,0,0,1.54.23.23,0,0,0,.26.15H6.1c.13,0,.17,0,.17.17,0,.43,0,.86,0,1.3a.35.35,0,0,0,.24.37,1.61,1.61,0,0,0,1.39,0,.25.25,0,0,0,.18-.27c0-.44,0-.88,0-1.32,0-.17,0-.23.22-.22H9.67c.08,0,.16,0,.21-.08a1.52,1.52,0,0,0,0-1.59.27.27,0,0,0-.26-.14H8.34c-.16,0-.22,0-.22-.21,0-.45,0-.91,0-1.36,0-.09,0-.18-.11-.22A2.26,2.26,0,0,0,6.48,4a.19.19,0,0,0-.15.23Zm10.26-.61A1.4,1.4,0,0,0,18,5.69a1.4,1.4,0,1,0,0-2.8A1.39,1.39,0,0,0,16.59,4.28Zm0,3.88a1.4,1.4,0,0,0,2.8,0A1.41,1.41,0,0,0,18,6.76,1.38,1.38,0,0,0,16.59,8.16Zm6.29-1.79a1.4,1.4,0,1,0-1.4,1.39A1.39,1.39,0,0,0,22.88,6.37Z"/></svg>