<svg id="Слой_1" data-name="Слой 1" xmlns="http://www.w3.org/2000/svg" viewBox="0 0 20.41 20.41"><defs><style>.cls-1{fill:#fff;}.cls-2{fill:#231f20;}</style></defs><path class="cls-1" d="M15.86,19.13a.51.51,0,0,1-.33-.13l-.15-.13a.86.86,0,0,1-.05-1.23l.07-.1-.5-.46-1.15-1.16-.63.64a2.29,2.29,0,0,1-.48.36,1.2,1.2,0,0,1-.52.12,1.11,1.11,0,0,1-.55-.15,2,2,0,0,1-.76-.74,1.15,1.15,0,0,1,.12-1.38,6.26,6.26,0,0,1,.5-.53l.18-.17L10.2,12.8,8.82,14.1l.53.54a1.15,1.15,0,0,1,.38,1.16A1.72,1.72,0,0,1,8.64,17a1.1,1.1,0,0,1-.4.08,1.24,1.24,0,0,1-.86-.39l-.73-.73L5,17.57l0,0a.86.86,0,0,1,0,1.23A.86.86,0,0,1,4.9,19a.65.65,0,0,1-.37.16H4.21A.52.52,0,0,1,3.89,19l-.17-.15L1.14,16.29A.51.51,0,0,1,1,15.94v-.37a.49.49,0,0,1,.14-.34l.14-.15a.89.89,0,0,1,.62-.26.82.82,0,0,1,.55.21h.15l1.6-1.56,0,0c-.24-.23-.47-.47-.71-.71a1.18,1.18,0,0,1-.22-1.47A2.07,2.07,0,0,1,4,10.52a.81.81,0,0,1,.27-.11,1.19,1.19,0,0,1,.32-.05,1.27,1.27,0,0,1,.9.41c.17.15.32.31.48.47l.09.09L7.16,10.1,2.39,5.85a1.77,1.77,0,0,1-.6-1.21c-.06-.77-.14-1.54-.21-2.31a1.7,1.7,0,0,1,0-.71.51.51,0,0,1,.48-.34h.27l.57.06L5,1.53a1.66,1.66,0,0,1,1.1.56L10.2,6.7l4.12-4.63a1.53,1.53,0,0,1,1-.53l2.35-.21a1.65,1.65,0,0,0,.31,0h.31a.46.46,0,0,1,.23.06.6.6,0,0,1,.33.61l0,.37L18.6,4.58a1.72,1.72,0,0,1-.41,1.08c-.12.13-.25.24-.38.36l-4.58,4.07,1.15,1.21.51-.51a1.42,1.42,0,0,1,.65-.4l.29,0a1.2,1.2,0,0,1,.77.28,2.52,2.52,0,0,1,.5.53A1.22,1.22,0,0,1,17,12.73l-.75.75,1.64,1.64a.93.93,0,0,1,.67-.3,1,1,0,0,1,.82.51.55.55,0,0,1,.09.29v.27a.47.47,0,0,1-.11.31,2.3,2.3,0,0,1-.16.2L16.56,19a.49.49,0,0,1-.36.15Z"/><path class="cls-2" d="M18.28,1.78a.14.14,0,0,1,.07.13l0,.36c-.07.76-.15,1.51-.21,2.27a1.34,1.34,0,0,1-.29.79c-.14.15-.3.27-.45.41L14.51,8.29,12.69,9.9c-.14.13-.14.2,0,.33s.25.27.37.4l1.16,1.21c.07.08.13.15.06.26a2.57,2.57,0,0,0,.29-.28l.68-.68a.93.93,0,0,1,.42-.26l.17,0a.68.68,0,0,1,.45.17,1.86,1.86,0,0,1,.41.43.72.72,0,0,1-.1.92l-1,1c-.12.12-.12.16,0,.27l2.06,2.06a.14.14,0,0,0,.11.05.17.17,0,0,0,.1,0,1.54,1.54,0,0,0,.29-.21.47.47,0,0,1,.32-.16.5.5,0,0,1,.39.27l0,0v.27L18.8,16l-2.6,2.59h-.34l-.13-.12a.37.37,0,0,1,0-.55l.11-.15a.42.42,0,0,0-.06-.58l-1.11-1.1-.72-.74c-.08-.08-.13-.12-.18-.12s-.1,0-.17.12l-.82.82a1.23,1.23,0,0,1-.34.26.66.66,0,0,1-.3.07.56.56,0,0,1-.3-.08,1.59,1.59,0,0,1-.58-.57.64.64,0,0,1,.07-.8c.23-.27.5-.51.75-.76s.24-.23.34-.36h-.07a.26.26,0,0,1-.15-.07l-1.76-1.58c-.12-.1-.17-.15-.23-.15s-.11.05-.21.15L8.3,13.9a.3.3,0,0,1-.21.12H8a.81.81,0,0,0,.1.09L9,15a.72.72,0,0,1,.25.68,1.25,1.25,0,0,1-.79.84.85.85,0,0,1-.22,0,.7.7,0,0,1-.5-.24c-.32-.31-.63-.62-.94-.94-.07-.07-.11-.1-.15-.1s-.09,0-.15.1l-2,2a.15.15,0,0,0,0,.21,1.76,1.76,0,0,0,.27.34.37.37,0,0,1,0,.54l-.15.13H4.21a.81.81,0,0,1-.14-.12L1.49,15.94v-.37l.13-.13a.37.37,0,0,1,.27-.12.4.4,0,0,1,.24.09.38.38,0,0,0,.26.11h.2A.49.49,0,0,0,3,15.39l1.78-1.77c.13-.13.12-.16,0-.29l-.94-.94a.69.69,0,0,1-.15-.87A1.59,1.59,0,0,1,4.25,11a.35.35,0,0,1,.14-.06l.19,0a.83.83,0,0,1,.56.27l.47.46.5.52h0c0-.08,0-.13.05-.19.51-.55,1-1.11,1.52-1.67.14-.16.14-.2,0-.34l-.91-.82L2.73,5.48a1.23,1.23,0,0,1-.44-.88L2.08,2.28a1.06,1.06,0,0,1,0-.5h.15l.07,0L5,2a1.15,1.15,0,0,1,.77.39L9.5,6.68c.19.2.37.41.55.61s.1.09.14.09.09,0,.15-.09l.19-.21,2.65-3c.5-.57,1-1.13,1.51-1.69A1.05,1.05,0,0,1,15.36,2l2.17-.2a5.62,5.62,0,0,0,.56-.06h.19m0-1h-.19a1,1,0,0,0-.24,0l-.22,0-.2,0L16.38.94,15.26,1a2.06,2.06,0,0,0-1.32.7l-1.5,1.69-1.8,2L10.2,6l-1-1.16-2.7-3A2.12,2.12,0,0,0,5,1L3,.86l-.57,0a.85.85,0,0,0-.23,0H2.07a1,1,0,0,0-.95.68,1.8,1.8,0,0,0-.05.84v.08c.08.76.15,1.53.21,2.3a2.3,2.3,0,0,0,.77,1.55L5,8.86l1.09,1,.32.28,0,0L6,10.6l-.2-.19a1.77,1.77,0,0,0-1.25-.55,1.51,1.51,0,0,0-.46.07,1.46,1.46,0,0,0-.39.16,2.64,2.64,0,0,0-.92.93,1.69,1.69,0,0,0,.29,2.07l.39.39-1,1a1.27,1.27,0,0,0-.6-.15,1.38,1.38,0,0,0-1,.4l-.13.13a1.12,1.12,0,0,0-.31.72v.37a1,1,0,0,0,.29.7l.61.61,2,2,.18.16a1.09,1.09,0,0,0,.67.25h.32a1,1,0,0,0,.66-.25,1.38,1.38,0,0,0,.21-.2,1.33,1.33,0,0,0,.25-1.56l1-1L7,17a1.74,1.74,0,0,0,1.21.53,1.66,1.66,0,0,0,.58-.11A2.24,2.24,0,0,0,10.2,16a1.9,1.9,0,0,0,.18.42,2.62,2.62,0,0,0,.95.92,1.61,1.61,0,0,0,.79.21,1.63,1.63,0,0,0,.74-.17,2.34,2.34,0,0,0,.61-.46l.28-.28.2.2.6.6.19.19a1.37,1.37,0,0,0,.28,1.6l.14.13a1.12,1.12,0,0,0,.7.28h.34a1,1,0,0,0,.71-.29l.28-.28,2.32-2.31a1.2,1.2,0,0,0,.17-.21,1.08,1.08,0,0,0,.24-.65v-.27a1,1,0,0,0-.21-.61,1.42,1.42,0,0,0-1.2-.69,1.29,1.29,0,0,0-.61.15l-1-1h0l.39-.4a1.71,1.71,0,0,0,.21-2.2,3.25,3.25,0,0,0-.6-.63,1.69,1.69,0,0,0-1.08-.39,1.83,1.83,0,0,0-.4.05,1.8,1.8,0,0,0-.89.53l-.15.14L14,10.12l.39-.34L15.17,9,18,6.49l.1-.09c.14-.13.29-.26.42-.4a2.23,2.23,0,0,0,.54-1.37c0-.49.09-1,.14-1.46l.07-.8,0-.24V2a1.13,1.13,0,0,0-.6-1.11,1,1,0,0,0-.46-.11ZM9.54,14.11l.2-.19.47-.44,0,0,.62.55c-.11.12-.23.24-.34.37a1.76,1.76,0,0,0-.34.63,1.92,1.92,0,0,0-.49-.79l-.17-.18Z"/></svg>