<svg id="Слой_1" data-name="Слой 1" xmlns="http://www.w3.org/2000/svg" viewBox="0 0 20.41 20.41"><defs><style>.cls-1{fill:#231f20;}</style></defs><path class="cls-1" d="M17.17,3.32A9.71,9.71,0,0,0,10.29.41h-.08A9.8,9.8,0,1,0,10.2,20h0a9.79,9.79,0,0,0,7-16.68ZM17.32,14l-1.06.16-2.11.31a.88.88,0,0,0-.77.59c-.41,1-.83,2-1.26,2.95a.86.86,0,0,0-.07.67,8.66,8.66,0,0,1-3.69,0A.87.87,0,0,0,8.27,18l-.48-1.11c-.25-.59-.5-1.18-.74-1.78a1,1,0,0,0-.84-.64l-1.8-.26L3.13,14H3.06a.75.75,0,0,0-.61.08l0,0a8.5,8.5,0,0,1-.87-2.82A.71.71,0,0,0,2.15,11c.77-.73,1.56-1.44,2.34-2.15a.94.94,0,0,0,.33-1q-.29-1.37-.54-2.73L4.2,4.74a.74.74,0,0,0-.3-.53h0A8.79,8.79,0,0,1,6.46,2.34v0a.81.81,0,0,0,.44.45L9.74,4.4a.84.84,0,0,0,.9,0c1-.55,1.94-1.1,2.92-1.64a.64.64,0,0,0,.37-.41,0,0,0,0,0,0,0A9,9,0,0,1,16.51,4.2l0,0a.86.86,0,0,0-.3.63C16,5.9,15.79,7,15.57,8a.8.8,0,0,0,.27.82c.84.77,1.67,1.53,2.49,2.3a.67.67,0,0,0,.46.21h.05A9,9,0,0,1,18,14.12h0A.82.82,0,0,0,17.32,14Z"/><path class="cls-1" d="M13.64,8.66c-1-.72-2-1.45-3-2.19a.67.67,0,0,0-.87,0c-1,.73-2,1.46-3,2.18a.68.68,0,0,0-.28.85c.39,1.18.77,2.35,1.15,3.53a.7.7,0,0,0,.73.53H12a.73.73,0,0,0,.76-.56c.37-1.16.74-2.32,1.13-3.47A.71.71,0,0,0,13.64,8.66Z"/></svg>