<svg id="Слой_1" data-name="Слой 1" xmlns="http://www.w3.org/2000/svg" viewBox="0 0 20.41 20.41"><defs><style>.cls-1{fill:#fff;}.cls-2{fill:#231f20;}</style></defs><path class="cls-1" d="M3.71,19.75a1.24,1.24,0,0,1-.93-.34,1.29,1.29,0,0,1-.34-.95q0-.72,0-1.44a1.27,1.27,0,0,1,.68-1.21l1.11-.66a.3.3,0,0,0,.17-.3q0-3.76,0-7.53a.83.83,0,0,0-.2-.44L4.08,6.7C3.72,6.1,3.35,5.51,3,4.93l-.32-.51a1.34,1.34,0,0,1-.22-.75c0-.31,0-1.77,0-1.77A1.19,1.19,0,0,1,3.68.66H5.3a1.35,1.35,0,0,1,1,.4A1.25,1.25,0,0,1,6.59,2a5.81,5.81,0,0,0,0,.59v.07H7.93V1.91A1.19,1.19,0,0,1,9.15.67h2.12A1.18,1.18,0,0,1,12.48,1.9v.74h1.35V1.9A1.18,1.18,0,0,1,15,.67h1.81A1.15,1.15,0,0,1,18,1.87V3.65a1.66,1.66,0,0,1-.33,1L16.1,7.07a.5.5,0,0,0-.08.3v7.51c0,.14,0,.18.12.23l.37.23.8.47A1.27,1.27,0,0,1,18,17v1.56a1.16,1.16,0,0,1-1.23,1.2h-13Zm7.74-8.86c0-.74,0-1.44,0-2.15a1.34,1.34,0,0,0-.12-.54,1.3,1.3,0,0,0-1.16-.74,1.24,1.24,0,0,0-.69.21A1.08,1.08,0,0,0,9,8.46a12.24,12.24,0,0,0,0,1.61c0,.27,0,.54,0,.82h2.51Z"/><path class="cls-2" d="M15.91,1.16h.9a.65.65,0,0,1,.66.7c0,.6,0,1.19,0,1.79a1.28,1.28,0,0,1-.26.7L15.68,6.81a1,1,0,0,0-.16.56v7.51a.7.7,0,0,0,.36.66c.4.24.78.48,1.18.71a.74.74,0,0,1,.41.73c0,.52,0,1,0,1.56a.67.67,0,0,1-.73.71h-13a.69.69,0,0,1-.77-.78q0-.73,0-1.47a.78.78,0,0,1,.43-.76l1.11-.66a.78.78,0,0,0,.42-.73q0-3.76,0-7.53a1.69,1.69,0,0,0-.39-.88C4,5.67,3.56,4.92,3.09,4.16a.86.86,0,0,1-.15-.49c0-.59,0-1.18,0-1.77a.68.68,0,0,1,.74-.74H5.32A.72.72,0,0,1,6.09,2c0,.27,0,.54,0,.82s.11.37.38.37H8c.3,0,.39-.1.39-.39V1.91a.7.7,0,0,1,.73-.74h2.1A.68.68,0,0,1,12,1.9c0,.3,0,.6,0,.9s.1.34.32.34H14c.23,0,.33-.12.33-.36V1.9A.68.68,0,0,1,15,1.17h.89M9,11.39h2.51a.5.5,0,0,0,.52-.53V8.74A1.83,1.83,0,0,0,11.81,8,1.79,1.79,0,0,0,10.2,7a1.82,1.82,0,0,0-1,.29A1.58,1.58,0,0,0,8.48,8.4a22.81,22.81,0,0,0,0,2.48.5.5,0,0,0,.51.51m7-11.23H15A1.67,1.67,0,0,0,13.33,1.9v.24H13V1.9A1.68,1.68,0,0,0,11.28.17H9.15A1.69,1.69,0,0,0,7.43,1.91v.23H7.08V2A1.67,1.67,0,0,0,6.64.72,1.82,1.82,0,0,0,5.32.16H3.68A1.68,1.68,0,0,0,1.94,1.89v.87c0,.3,0,.6,0,.9a1.9,1.9,0,0,0,.3,1l.3.47c.37.6.75,1.2,1.11,1.8l.13.2a.94.94,0,0,1,.12.2c0,2.44,0,4.92,0,7.4L3.44,15l-.58.34A1.77,1.77,0,0,0,1.94,17c0,.48,0,.95,0,1.43a1.77,1.77,0,0,0,.48,1.3,1.73,1.73,0,0,0,1.29.49h13a1.66,1.66,0,0,0,1.73-1.7V17a1.75,1.75,0,0,0-.91-1.61l-.76-.45-.28-.17V7.36L17.36,6l.7-1.11a2.22,2.22,0,0,0,.41-1.25V1.86A1.65,1.65,0,0,0,16.83.17ZM9.43,10.38v-.32a11.11,11.11,0,0,1,0-1.54.56.56,0,0,1,.31-.43.78.78,0,0,1,1.2.65v1.65H9.43Z"/></svg>