<svg id="Слой_1" data-name="Слой 1" xmlns="http://www.w3.org/2000/svg" viewBox="0 0 20.41 20.41"><defs><style>.cls-1{fill:#fff;}.cls-2{fill:#231f20;}</style></defs><path class="cls-1" d="M2.94,19.51a1.51,1.51,0,0,1-1.47-1.39,2.87,2.87,0,0,1,.09-.9l1.87-9.3.13-.67c.1-.5.2-1,.32-1.5A6.37,6.37,0,0,1,7.79,1.2,6.2,6.2,0,0,1,10.2.73a6.48,6.48,0,0,1,4.65,2,6.32,6.32,0,0,1,1.59,2.7c.1.35.17.7.24,1.05L18.91,17.5a2.05,2.05,0,0,1,0,.89,1.49,1.49,0,0,1-1.44,1.12h0A2,2,0,0,1,16.09,19l-.25-.21-.34-.28a.83.83,0,0,0-.51-.19,1.08,1.08,0,0,0-.6.22,3.17,3.17,0,0,0-.36.28l-.32.25a2,2,0,0,1-.86.4l-.26,0a1.58,1.58,0,0,1-1-.37L11,18.62a1.12,1.12,0,0,0-.74-.28,1.21,1.21,0,0,0-.8.31l-.55.47a1.66,1.66,0,0,1-1,.39,1.8,1.8,0,0,1-1-.31,5.58,5.58,0,0,1-.48-.37l-.21-.17a1.66,1.66,0,0,0-.52-.29.83.83,0,0,0-.22,0,.81.81,0,0,0-.46.15,4.16,4.16,0,0,0-.39.32l-.23.2a2.09,2.09,0,0,1-1.32.5ZM8.05,7.26a.51.51,0,0,0-.41.24,1.33,1.33,0,0,0-.26.75,1.34,1.34,0,0,0,.3,1,.5.5,0,0,0,.38.2h0a.54.54,0,0,0,.37-.19,1.22,1.22,0,0,0,.31-.79,1.52,1.52,0,0,0-.21-.89c-.17-.24-.31-.29-.42-.3Zm4.28,0a.48.48,0,0,0-.38.23,1.29,1.29,0,0,0-.28,1,1.21,1.21,0,0,0,.32.79.47.47,0,0,0,.36.18h0a.52.52,0,0,0,.37-.19,1.25,1.25,0,0,0,.31-.8,1.51,1.51,0,0,0-.2-.85c-.15-.24-.28-.3-.38-.32Z"/><path class="cls-2" d="M12.56,6.79l-.23,0a1,1,0,0,0-.77.41,1.84,1.84,0,0,0-.39,1.34,1.74,1.74,0,0,0,.45,1.1,1,1,0,0,0,.73.33,1,1,0,0,0,.75-.36,1.84,1.84,0,0,0,.43-1.12,2.08,2.08,0,0,0-.27-1.13A1.15,1.15,0,0,0,12.56,6.79Z"/><path class="cls-2" d="M8.18,6.77H8.05a1,1,0,0,0-.8.43,1.78,1.78,0,0,0-.37,1,1.84,1.84,0,0,0,.43,1.34,1,1,0,0,0,.75.37,1,1,0,0,0,.73-.35,1.7,1.7,0,0,0,.45-1.12,2,2,0,0,0-.3-1.18A1.06,1.06,0,0,0,8.18,6.77Z"/><path class="cls-2" d="M19.4,17.4c-.15-.75-.31-1.5-.46-2.26l-.12-.61-.19-.94-.27-1.31L18.1,11l-.31-1.53c-.18-.92-.37-1.85-.56-2.77l-.06-.34C17.1,6,17,5.62,16.92,5.25a6.86,6.86,0,0,0-1.71-2.91,7,7,0,0,0-5-2.11h0A6.55,6.55,0,0,0,7.6.74,6.86,6.86,0,0,0,3.39,5.63c-.12.51-.22,1-.32,1.52,0,.23-.08.45-.13.67l-.15.75L2.54,9.82l-.25,1.23-.24,1.22-.21,1.05-.18.87-.58,2.87v.07a3.3,3.3,0,0,0-.09,1A2,2,0,0,0,2.92,20H3a2.58,2.58,0,0,0,1.63-.61l.25-.21a2.63,2.63,0,0,1,.34-.28.3.3,0,0,1,.18-.07l.09,0a.91.91,0,0,1,.34.2,1.56,1.56,0,0,1,.2.16,6.1,6.1,0,0,0,.53.4A2.26,2.26,0,0,0,7.72,20h.1a2.13,2.13,0,0,0,1.35-.5l.35-.3L9.73,19a.68.68,0,0,1,.47-.19.63.63,0,0,1,.44.17l.27.23.36.29a2.07,2.07,0,0,0,1.32.48l.34,0A2.47,2.47,0,0,0,14,19.49c.12-.08.23-.18.34-.27s.21-.17.33-.25a.62.62,0,0,1,.29-.13h0a.38.38,0,0,1,.23.1l.3.24.26.23a2.54,2.54,0,0,0,1.62.6h.07a2,2,0,0,0,1.91-1.5A2.59,2.59,0,0,0,19.4,17.4Zm-1,.86a1,1,0,0,1-1,.75h0a1.51,1.51,0,0,1-1-.38c-.2-.16-.39-.35-.6-.5a1.36,1.36,0,0,0-.81-.29h-.07a1.65,1.65,0,0,0-.82.31c-.24.16-.45.36-.68.54a1.63,1.63,0,0,1-.65.31h-.18a1.14,1.14,0,0,1-.7-.26l-.62-.52a1.68,1.68,0,0,0-1.07-.39h0a1.69,1.69,0,0,0-1.11.43l-.55.46a1.14,1.14,0,0,1-.72.28H7.77a1.21,1.21,0,0,1-.64-.23c-.24-.15-.44-.34-.67-.51a1.87,1.87,0,0,0-.69-.38,1.41,1.41,0,0,0-.35-.05,1.3,1.3,0,0,0-.74.24c-.24.16-.44.36-.66.54A1.57,1.57,0,0,1,3,19H3a1,1,0,0,1-1-.93,2.86,2.86,0,0,1,.09-.83c.19-.95.39-1.91.58-2.86L3,12.47c.16-.82.32-1.63.49-2.45.13-.67.27-1.33.4-2s.27-1.44.45-2.15A5.87,5.87,0,0,1,8,1.66a5.63,5.63,0,0,1,2.22-.43A6,6,0,0,1,16,5.53c.13.45.2.9.29,1.36.19.91.38,1.83.56,2.75l.57,2.84c.15.75.31,1.5.46,2.25l.57,2.87A1.34,1.34,0,0,1,18.4,18.26Z"/></svg>