<svg id="Слой_1" data-name="Слой 1" xmlns="http://www.w3.org/2000/svg" viewBox="0 0 20.41 20.41"><defs><style>.cls-1{fill:#fff;}.cls-2{fill:#231f20;}</style></defs><rect class="cls-1" x="0.9" y="0.9" width="18.6" height="18.6" rx="2.14"/><path class="cls-2" d="M17.36,1.4A1.65,1.65,0,0,1,19,3.05V17.36A1.65,1.65,0,0,1,17.36,19H3.05A1.65,1.65,0,0,1,1.4,17.36V3.05A1.65,1.65,0,0,1,3.05,1.4H17.36m0-1H3.05A2.65,2.65,0,0,0,.4,3.05V17.36A2.65,2.65,0,0,0,3.05,20H17.36A2.65,2.65,0,0,0,20,17.36V3.05A2.65,2.65,0,0,0,17.36.4Z"/><path d="M6.37,13.1c0-.91,0-1.82,0-2.73,0-.12,0-.16.16-.16H8.15c.11,0,.14,0,.14-.14,0-.56,0-1.11,0-1.66,0-.11,0-.13.13-.13H12c.13,0,.16,0,.16-.15,0-1.19,0-2.37,0-3.55,0-.13,0-.15.16-.15H15.8c.12,0,.15,0,.14.15V8.16c0,.11,0,.13-.13.13H12.29c-.11,0-.14,0-.14.14V10.1c0,.1,0,.12.12.12h1.64c.11,0,.14,0,.14.14,0,1.82,0,3.65,0,5.47,0,.11,0,.15-.14.14H12.28c-.11,0-.14,0-.13-.13V14.21c0-.16,0-.17-.17-.17-1.19,0-2.37,0-3.56,0-.1,0-.14,0-.13.14v1.67c0,.1,0,.12-.12.12H6.48c-.09,0-.12,0-.12-.11C6.37,14.94,6.37,14,6.37,13.1Z"/><path d="M8.26,6.36V8.17c0,.09,0,.12-.11.12H4.58c-.09,0-.11,0-.11-.11V4.55c0-.1,0-.11.12-.11H8.14c.1,0,.12,0,.12.12Z"/></svg>