<svg id="Слой_1" data-name="Слой 1" xmlns="http://www.w3.org/2000/svg" xmlns:xlink="http://www.w3.org/1999/xlink" viewBox="0 0 20.41 20.41"><defs><style>.cls-1{fill:url(#Безымянный_градиент);}.cls-2{fill:#231f20;}</style><linearGradient id="Безымянный_градиент" x1="0.81" y1="10.21" x2="19.6" y2="10.21" gradientUnits="userSpaceOnUse"><stop offset="0" stop-color="#fff"/><stop offset="1" stop-color="#fff"/></linearGradient></defs><path class="cls-1" d="M2.52,18.82A1.61,1.61,0,0,1,1.14,18a2.55,2.55,0,0,1-.31-1.23v-.19a1.5,1.5,0,0,1,0-.3v-.1a13.53,13.53,0,0,1,1-5.09,5.16,5.16,0,0,1,.74-1.24,1.59,1.59,0,0,1,1.09-.61L3.51,9a.91.91,0,0,1,.07-.81,1.32,1.32,0,0,0-.39-.06,1.72,1.72,0,0,0-.44.06.87.87,0,0,1-.26,0,.69.69,0,0,1-.68-.58c-.11-.42-.24-.83-.38-1.24a.66.66,0,0,1,0-.53.66.66,0,0,1,.45-.31A5.07,5.07,0,0,1,3.2,5.43a3.61,3.61,0,0,1,1.6.36l.07,0a2.41,2.41,0,0,1,1.29-.73l5.91-1.72A1.18,1.18,0,0,0,12,3.19a.64.64,0,0,1,0-.51.65.65,0,0,1,.4-.32q.72-.19,1.41-.42a.93.93,0,0,1,.23,0,.58.58,0,0,1,.57.49.83.83,0,0,0,.06.21l.19-.06a1.11,1.11,0,0,1,.25,0,.57.57,0,0,1,.55.45l.12.4A.52.52,0,0,1,16,3.13l1.38-1.39a.47.47,0,0,1,.35-.15.59.59,0,0,1,.23,0,.5.5,0,0,1,.26.54s-.12.67-.14.82l1.13.16a.5.5,0,0,1,.25.88l-1,.79.48.4a.51.51,0,0,1,.14.58.49.49,0,0,1-.46.3l-1.71-.19a.74.74,0,0,1-.37-.12c0,.08.05.16.08.24a.82.82,0,0,1,0,.49.57.57,0,0,1-.39.28l-3.57,1c.08.27.15.53.22.79l0,.1a3.51,3.51,0,0,1-.43,2.85A3,3,0,0,1,9.85,13h0A2.59,2.59,0,0,1,7.5,11.82a.91.91,0,0,1-.35.53c-.18.14-.37.27-.56.4a.68.68,0,0,0-.29.85,7.65,7.65,0,0,1,.37,2.27A2.51,2.51,0,0,1,6,17.68a1.67,1.67,0,0,1-.72.42l-.58.17L3,18.77A2.2,2.2,0,0,1,2.52,18.82Zm1.53-7.19a.4.4,0,1,0,0,.79H4a.42.42,0,0,0,.3-.11A.41.41,0,0,0,4.44,12a.4.4,0,0,0-.39-.4v0ZM10.8,9.56a5.61,5.61,0,0,0-1.19.37,1.94,1.94,0,0,0-.53.27.62.62,0,0,0,.66.53h.12a.93.93,0,0,0,.94-1Z"/><path class="cls-2" d="M17.69,2.09c-.08.43-.13.81-.22,1.18,0,.15,0,.16.13.17l1.5.21-1.18,1c-.24.19-.23.2,0,.38l.71.59-1-.11L17,5.43a.2.2,0,0,1-.21-.17c-.14-.53-.3-1.07-.46-1.61,0-.06-.05-.1,0-.17l1.38-1.39m-3.62.31s.06,0,.08.09.11.38.16.57.06.14.13.14l.09,0c.18-.07.36-.11.54-.17l.07,0s.06,0,.07.09c.31,1,.61,2.07.93,3.11,0,.13,0,.12-.1.15L14,7l-1.77.51c-.15,0-.18.09-.13.24.13.39.23.78.34,1.17A3,3,0,0,1,12,11.33a2.43,2.43,0,0,1-2.17,1.21h0a2.13,2.13,0,0,1-2.07-1.3A3.16,3.16,0,0,0,6.67,10,6.13,6.13,0,0,0,4.29,9C3.94,9,3.86,8.76,4,8.44a1.09,1.09,0,0,1,.08-.15c.13-.23.1-.33-.15-.44a1.65,1.65,0,0,0-.78-.18,2.24,2.24,0,0,0-.57.08l-.13,0c-.11,0-.16-.07-.2-.22-.11-.42-.24-.84-.38-1.26,0-.13,0-.17.12-.2A4.71,4.71,0,0,1,3.2,5.93a3.08,3.08,0,0,1,1.38.31,1,1,0,0,0,.34.1.43.43,0,0,0,.36-.23,1.88,1.88,0,0,1,1-.54l6.2-1.8c.17,0,.2-.11.13-.27s-.1-.32-.15-.48,0-.14.08-.18c.48-.13.95-.28,1.42-.43h.08M7.44,7l.08,0,2.2-.62c.06,0,.12,0,.11-.13a3.62,3.62,0,0,1-.17-.56c0-.13-.07-.17-.14-.17l-.14,0-1.69.5c-.19,0-.46.06-.53.19s.09.37.13.56c0,0,0,0,0,.08s0,.14.12.14m.45,1.67.07,0,2.27-.64s.1,0,.09-.08c-.07-.25-.14-.48-.2-.72,0,0,0-.06-.06-.06l-.09,0c-.75.22-1.49.45-2.24.66-.11,0-.14.06-.1.15s.13.4.19.6,0,.09.07.09m1.85,2.52h.17A1.41,1.41,0,0,0,11.3,9.75a1.76,1.76,0,0,0,0-.23c0-.32-.15-.47-.42-.47h-.16a6.72,6.72,0,0,0-1.38.44,2.11,2.11,0,0,0-.57.31.43.43,0,0,0-.17.57,1.13,1.13,0,0,0,1.14.85M3.88,9.7a2.2,2.2,0,0,1,.44.05A4.29,4.29,0,0,1,6.68,11a1.52,1.52,0,0,1,.3.46.39.39,0,0,1-.14.52l-.53.38a1.15,1.15,0,0,0-.49,1.39,7.72,7.72,0,0,1,.35,2.13,2,2,0,0,1-.52,1.46,1.18,1.18,0,0,1-.5.3c-.77.22-1.54.46-2.32.66a1.15,1.15,0,0,1-.31,0,1.1,1.1,0,0,1-.95-.6,2.49,2.49,0,0,1-.25-1.2c0-.12,0-.24,0-.36a13.3,13.3,0,0,1,.94-4.9,4.56,4.56,0,0,1,.67-1.12,1.16,1.16,0,0,1,.95-.44M4,12.92a.9.9,0,0,0,0-1.79h0a.91.91,0,0,0-.92.89.9.9,0,0,0,.9.9H4M17.69,1.09a1,1,0,0,0-.71.29l-.35.36L16,2.4A1.06,1.06,0,0,0,15.14,2H15a1,1,0,0,0-1-.6,1.32,1.32,0,0,0-.38.06c-.46.15-.93.29-1.4.42a1.1,1.1,0,0,0-.7.57,1,1,0,0,0-.12.58l-3.59,1L6,4.61a3.17,3.17,0,0,0-1.28.61A4.23,4.23,0,0,0,3.2,4.93a5.54,5.54,0,0,0-1.41.19A1.18,1.18,0,0,0,1,5.67,1.16,1.16,0,0,0,1,6.6c.12.36.25.79.37,1.22a1.18,1.18,0,0,0,1.16.95,1.43,1.43,0,0,0,.39-.06h.06a1.23,1.23,0,0,0,0,.19,2.23,2.23,0,0,0-.81.63,5.57,5.57,0,0,0-.81,1.35,14.09,14.09,0,0,0-1,5.27v.11a2,2,0,0,0,0,.35v.18a3,3,0,0,0,.39,1.47,2.1,2.1,0,0,0,1.8,1.07,2.22,2.22,0,0,0,.57-.07c.58-.15,1.15-.32,1.73-.49l.6-.18A2.22,2.22,0,0,0,6.34,18a3,3,0,0,0,.83-2.16,8.06,8.06,0,0,0-.39-2.41c0-.21,0-.23.09-.3l.58-.42.1-.08a3.13,3.13,0,0,0,2.27.87,3.48,3.48,0,0,0,3-1.69,4,4,0,0,0,.48-3.24l0-.09-.09-.33L13.9,8l.33-.09,2.09-.62A1,1,0,0,0,17,6.78a1,1,0,0,0,.12-.33h.08l.26,0,.7.08.34,0h.11a1,1,0,0,0,.64-1.76l0,0,.14-.11.36-.3a1,1,0,0,0,.32-1,1,1,0,0,0-.82-.72l-.42-.06-.2,0,.06-.3a1,1,0,0,0-.53-1.07,1,1,0,0,0-.46-.11Z"/></svg>