<svg id="Слой_1" data-name="Слой 1" xmlns="http://www.w3.org/2000/svg" viewBox="0 0 20.41 20.41"><path d="M10.62.56a1.25,1.25,0,0,1,.68.19l6.47,3.74c.51.29,1,.58,1.52.88a1.25,1.25,0,0,1,.49,1.8L15.89,13.9q-1.47,2.55-3,5.1a1.27,1.27,0,0,1-1.75.51L7.07,17.14,3.14,14.87a1.26,1.26,0,0,1-.48-1.79Q6.08,7.16,9.51,1.22A1.24,1.24,0,0,1,10.62.56Zm1.2,18c.08,0,.11-.05.14-.11l1.57-2.72q2.63-4.55,5.26-9.09c.08-.15.07-.19-.08-.28L10.77,1.76c-.18-.1-.21-.09-.31.08Q8.21,5.76,5.94,9.67L3.67,13.6c-.1.18-.09.21.09.31l.31.18,7.62,4.4A.25.25,0,0,0,11.82,18.54Z"/><path d="M6.4,17.81c-.05,0-.1,0-.14,0H1.75A1.26,1.26,0,0,1,.44,16.51V2.84a1.26,1.26,0,0,1,1-1.29l.17,0H8.25s0,.07,0,.11l-.52.9a.18.18,0,0,1-.19.11H1.81c-.21,0-.24,0-.24.24V16.44c0,.23,0,.25.24.25H4.36a.44.44,0,0,1,.23.06l1.69,1Z"/><path d="M11.11,12.44a4.46,4.46,0,0,0,.06.82c0,.22.08.43.13.65a.26.26,0,0,1-.08.26.21.21,0,0,1-.27,0L7.78,12.35a.21.21,0,0,1-.12-.23.2.2,0,0,1,.17-.19,7.54,7.54,0,0,0,1.22-.48.31.31,0,0,0,.13-.08,2,2,0,0,1,.16-3.8,2,2,0,0,1,.92.06c.08,0,.1,0,.14-.06a1.89,1.89,0,0,1,1.27-1.05A2,2,0,0,1,14.05,8a1.92,1.92,0,0,1-.26,1.51c0,.07,0,.1,0,.15a2,2,0,1,1-2.59,2.92S11.17,12.45,11.11,12.44Z"/></svg>