<svg id="Слой_1" data-name="Слой 1" xmlns="http://www.w3.org/2000/svg" viewBox="0 0 20.41 20.41"><defs><style>.cls-1{fill:#231f20;}</style></defs><path class="cls-1" d="M12,6.8a1,1,0,0,0,.58-.18,1,1,0,1,0-1.45-.27A1.07,1.07,0,0,0,12,6.8Z"/><path class="cls-1" d="M7.87,9.72s0-.06-.07-.06a.09.09,0,0,0-.07,0c-.39.27-.78.53-1.16.81l-.07,0s0,0-.06-.06L5.63,9.32s0-.06-.07-.06l-.07,0c-.38.28-.77.55-1.16.81-.07.05-.07.08,0,.14l.81,1.16c0,.06,0,.09,0,.13l-1.17.81c-.06,0-.07.07,0,.14l.81,1.16s0,0,.07,0l.07,0L6,12.86a.09.09,0,0,1,.07,0,.1.1,0,0,1,.07.06c.27.39.54.77.8,1.16,0,0,0,.05.07.05l.07,0,.57-.4.59-.41c.07,0,.07-.07,0-.14L7.46,12c0-.07,0-.09,0-.14L8.65,11c.06,0,.07-.08,0-.14C8.4,10.49,8.13,10.11,7.87,9.72Z"/><path class="cls-1" d="M11.55,7a1.08,1.08,0,0,0-.57.17A1,1,0,0,0,11.57,9a1,1,0,0,0,.58-.18,1,1,0,0,0,.28-1.44A1.06,1.06,0,0,0,11.55,7Z"/><path class="cls-1" d="M20.13,7a4.94,4.94,0,0,0-.53-1.74.41.41,0,0,0-.05-.09,1.08,1.08,0,0,0-.12-.24l-.23-.33L19,4.21A1,1,0,0,0,18.79,4s-.06-.09-.09-.12a8.18,8.18,0,0,0-2.09-1.74A9.14,9.14,0,0,0,12.2.94H12a7.17,7.17,0,0,0-1.88.24A3.64,3.64,0,0,0,8.59,2a6.51,6.51,0,0,0-1,1.23l-.11.15a5.26,5.26,0,0,1-1.38,1.3,5.64,5.64,0,0,1-1.84.74,4.82,4.82,0,0,0-1.75.79,3.79,3.79,0,0,0-1,1.19A8.32,8.32,0,0,0,.34,10.75,8.61,8.61,0,0,0,.61,14.4a7.69,7.69,0,0,0,.75,1.74,1.51,1.51,0,0,0,.11.22l.25.35.22.32.09.11.09.1.22.23A4.94,4.94,0,0,0,5.88,19a4.76,4.76,0,0,0,1.87-.37A5,5,0,0,0,10,16.76c.28-.39.52-.78.76-1.16l.4-.62A8.5,8.5,0,0,1,12,13.89a3.25,3.25,0,0,1,1.27-.8,11.57,11.57,0,0,1,1.78-.47l.16,0a12.55,12.55,0,0,0,1.88-.51,4.71,4.71,0,0,0,2.32-2A4.82,4.82,0,0,0,20.13,7ZM18.57,9.57a3.7,3.7,0,0,1-1.84,1.56,13.07,13.07,0,0,1-1.86.5,16,16,0,0,0-1.95.52,4.19,4.19,0,0,0-1.65,1.06,8.6,8.6,0,0,0-.94,1.22c-.38.58-.74,1.18-1.14,1.75a4.16,4.16,0,0,1-1.81,1.48,4.16,4.16,0,0,1-1.5.29,3.91,3.91,0,0,1-2.82-1.18l-.3-.32-.47-.66s0,0,0-.07a7.24,7.24,0,0,1-.71-1.61,7.67,7.67,0,0,1-.23-3.23A7.53,7.53,0,0,1,2.3,8a2.94,2.94,0,0,1,.78-.9,3.85,3.85,0,0,1,1.4-.63,6.48,6.48,0,0,0,2.16-.88A6.1,6.1,0,0,0,8.29,4a5.93,5.93,0,0,1,1-1.21,2.57,2.57,0,0,1,1.12-.64A5.84,5.84,0,0,1,12,1.94h.18A8.05,8.05,0,0,1,16.11,3a7,7,0,0,1,1.82,1.52c.07.08.12.18.21.23l.47.67a.88.88,0,0,0,.1.22,3.8,3.8,0,0,1,.42,1.39A3.88,3.88,0,0,1,18.57,9.57Z"/><path class="cls-1" d="M13.79,7.36a1.06,1.06,0,0,0-.57.17,1,1,0,0,0,.6,1.91,1,1,0,0,0,.56-.17,1.06,1.06,0,0,0,.29-1.46A1.09,1.09,0,0,0,13.79,7.36Z"/><path class="cls-1" d="M14.19,5.12a1,1,0,0,0-.58.18,1.05,1.05,0,0,0-.26,1.46,1,1,0,1,0,1.71-1.19A1.05,1.05,0,0,0,14.19,5.12Z"/></svg>