<svg id="Слой_1" data-name="Слой 1" xmlns="http://www.w3.org/2000/svg" viewBox="0 0 20.41 20.41"><defs><style>.cls-1{fill:#fff;}</style></defs><path class="cls-1" d="M6.74,6.15l1.74-.54L9.79,7.32l.5.93,2-.56L15,7.48l1.23.15,2.29,3.72.89,4.18-1.62,2.85-1.92.86L14,19.73l-2.53-.67L7.82,17l-.65-.88.13-1.47,1.08-.29,2-.07-1-1.47S6.39,7.59,6.74,6.15Z"/><path d="M9.39,14.1c-.29-.64-.59-1.29-.9-1.94C7.77,10.6,7,9,6.31,7.47a1.72,1.72,0,0,1,.62-2.19,1.8,1.8,0,0,1,2.41.24A5.61,5.61,0,0,1,10,6.73a3.77,3.77,0,0,1,.29.61c.07.22.17.2.34.12A1.64,1.64,0,0,1,12,7.38a.37.37,0,0,0,.37,0,1.86,1.86,0,0,1,1.82-.23c.11,0,.18,0,.27-.05a1.82,1.82,0,0,1,2.72.87c.72,1.54,1.45,3.08,2.15,4.62A5.4,5.4,0,0,1,15.87,20a5,5,0,0,1-4.27-.52A46.36,46.36,0,0,0,7.4,17.3a1.65,1.65,0,0,1-1-1.81A1.67,1.67,0,0,1,8.11,14.1C8.52,14.08,8.94,14.1,9.39,14.1Zm9.4.69A4.13,4.13,0,0,0,18.4,13c-.42-.92-.85-1.85-1.29-2.77-.3-.66-.6-1.32-.92-2a.81.81,0,0,0-1.11-.39c-.39.2-.49.55-.27,1s.44.93.65,1.4c.07.13.18.31,0,.41s-.29-.08-.36-.23c-.31-.66-.61-1.33-.92-2a.72.72,0,0,0-1.1-.39.71.71,0,0,0-.37,1.05l.76,1.65c.07.15.24.34,0,.45s-.27-.12-.34-.27c-.35-.75-.7-1.5-1.06-2.25A.7.7,0,0,0,11,8.41a.71.71,0,0,0-.39,1c.15.34.31.67.47,1l.48,1c.06.14.14.29,0,.38s-.28-.06-.34-.22l-.06-.12-2.35-5a.73.73,0,0,0-1.13-.39c-.46.23-.56.6-.3,1.16L10.91,15c.06.11.17.23.07.37s-.26.08-.4.05a12.25,12.25,0,0,0-2.34-.27.84.84,0,0,0-.62.19.65.65,0,0,0,.26,1.11A38.44,38.44,0,0,1,12,18.53a4.27,4.27,0,0,0,3.25.61A4.49,4.49,0,0,0,18.79,14.79Z"/><path d="M14.82,4.24a.48.48,0,0,1-.33.46l-2.22,1a.52.52,0,0,1-.7-.2.5.5,0,0,1,.26-.7c.76-.37,1.52-.72,2.29-1.06A.49.49,0,0,1,14.82,4.24Z"/><path d="M6.74,3.16a.5.5,0,0,1-1,.24c-.24-.49-.47-1-.7-1.49-.12-.26-.26-.52-.37-.79A.5.5,0,0,1,4.94.46a.47.47,0,0,1,.67.2C6,1.43,6.34,2.22,6.71,3,6.73,3.06,6.73,3.13,6.74,3.16Z"/><path d="M4.5,5.55c0,.43-.28.69-.63.58q-1.25-.42-2.46-.9a.45.45,0,0,1-.25-.64.46.46,0,0,1,.61-.28l2.42.89A.44.44,0,0,1,4.5,5.55Z"/><path d="M4.64,9a.48.48,0,0,1-.3.48c-.74.35-1.48.7-2.23,1a.48.48,0,0,1-.72-.23c-.12-.27,0-.52.31-.68.73-.34,1.45-.68,2.19-1C4.29,8.37,4.63,8.57,4.64,9Z"/><path d="M9.59,3.57a.51.51,0,0,1-.5-.65q.42-1.25.9-2.46a.45.45,0,0,1,.62-.25.44.44,0,0,1,.3.59Q10.47,2,10,3.29A.5.5,0,0,1,9.59,3.57Z"/></svg>