<svg version="1.1" id="Layer_1" xmlns="http://www.w3.org/2000/svg" xmlns:xlink="http://www.w3.org/1999/xlink" x="0px" y="0px"
	 width="100%" viewBox="0 0 1024 1024" enable-background="new 0 0 1024 1024" xml:space="preserve">
<path fill="#000000" opacity="1.000000" stroke="none" 
	d="
M923.161621,388.735931 
	C936.680847,395.255859 945.340210,405.460846 949.614075,419.472992 
	C950.728577,423.127014 952.165466,426.689423 953.581970,430.242950 
	C955.469727,434.978668 958.294861,438.854126 962.768127,441.701782 
	C979.972290,452.654053 977.936768,473.709961 966.485474,486.335968 
	C963.289612,489.859711 961.365601,493.421936 960.314026,497.883911 
	C951.399353,535.707886 942.347595,573.499634 933.462341,611.330444 
	C931.686890,618.890137 927.727905,624.632507 921.231750,628.819275 
	C916.475403,631.884888 911.944702,635.300415 907.191284,638.370911 
	C901.285950,642.185608 895.118774,643.151489 888.184631,640.772522 
	C880.036194,637.976929 871.623291,635.952148 862.999756,633.500610 
	C860.035767,641.278076 857.340271,648.744934 854.363037,656.097656 
	C838.595459,695.037598 816.948181,730.335266 789.184387,761.928345 
	C747.153564,809.756226 696.456909,845.215759 637.348572,868.633240 
	C610.023865,879.458679 581.642639,886.103882 552.404419,889.572205 
	C526.649963,892.627197 500.943481,892.892700 475.235321,890.224487 
	C447.072174,887.301636 419.507660,881.406738 392.681061,872.122131 
	C382.959290,868.757446 372.928711,866.286682 363.044922,863.388123 
	C346.258728,858.465271 331.304962,850.347656 319.394775,837.362427 
	C311.994385,829.294006 303.033173,823.305481 294.335419,816.877625 
	C218.894348,761.125366 170.866165,687.525757 150.683929,595.831970 
	C144.310593,566.876038 142.464859,537.528564 143.912170,508.036285 
	C144.814148,489.656189 146.605331,471.277985 151.428909,453.361206 
	C153.233383,446.658569 153.037781,446.512390 146.030411,444.649414 
	C129.167679,440.166199 112.288513,435.744171 95.401711,431.352295 
	C81.425247,427.717316 67.799332,411.731384 67.115074,397.407928 
	C66.791023,390.624634 70.154938,384.536102 72.318321,378.274567 
	C78.945740,359.092621 85.622368,339.927399 92.376411,320.789764 
	C93.314720,318.131042 93.054230,316.302582 90.915939,314.224396 
	C80.661301,304.257843 79.171890,292.316864 83.854103,279.325562 
	C86.969872,270.680511 91.183563,262.518494 96.295082,254.888428 
	C99.125175,250.663940 101.081268,246.163025 102.438293,241.318375 
	C108.855675,218.408020 125.015251,206.115524 147.400436,201.782349 
	C171.919357,197.036148 193.800339,204.757858 213.675064,218.736893 
	C218.328857,222.010147 223.035034,223.630890 228.473038,223.596375 
	C243.542801,223.500717 256.249207,229.448929 267.696747,238.706848 
	C268.602264,239.439163 269.502899,240.177963 270.391602,240.930527 
	C273.830994,243.843033 276.664917,243.684448 280.333984,240.547516 
	C290.339447,231.993042 301.096252,224.392197 312.366547,217.548172 
	C313.896637,216.619019 315.673462,215.901459 316.448090,213.729202 
	C315.025787,210.805313 312.361816,208.712463 310.155579,206.296814 
	C306.553253,202.352585 304.213745,197.881409 303.633026,192.569061 
	C303.293884,189.466660 301.957642,188.192444 298.741425,186.870392 
	C285.466309,181.413452 277.095825,175.377045 276.445862,158.581360 
	C275.367645,130.718201 291.918396,113.521507 318.289764,106.959335 
	C325.360840,105.199783 331.748657,102.474907 337.902283,98.679047 
	C355.104523,88.067757 373.783081,83.311905 394.076233,84.613205 
	C412.366699,85.786087 434.232361,103.447441 437.919830,121.200790 
	C440.080261,131.602325 435.904266,140.254883 427.868011,146.773178 
	C425.102081,149.016678 424.652649,150.564194 425.967743,153.767456 
	C427.530945,157.574966 428.437866,161.703690 429.195190,165.773956 
	C429.802612,169.038330 431.089966,169.680634 434.334351,169.045746 
	C463.147095,163.407486 492.217590,160.654434 521.607422,161.634247 
	C570.491760,163.264008 617.005615,174.678711 661.053894,195.828751 
	C720.211487,224.233627 768.190125,265.666809 804.688049,320.282043 
	C806.167480,322.496002 807.497681,324.810486 808.876038,327.091064 
	C810.164978,329.223694 811.425476,331.373474 812.979980,333.989502 
	C819.046265,331.148163 825.161804,328.000549 831.829041,326.823883 
	C860.307129,321.797974 883.941040,330.634644 902.841736,352.353607 
	C910.097595,360.691345 914.657166,370.473236 917.088684,381.170746 
	C917.907410,384.772705 919.340820,387.326447 923.161621,388.735931 
M107.579910,363.595062 
	C106.188202,362.844940 105.698624,361.342896 104.746269,360.242767 
	C102.305649,357.423492 99.479408,357.734375 97.547295,360.990234 
	C100.987213,362.253876 104.341087,363.636444 108.538437,364.446136 
	C120.285072,368.929993 132.031708,373.413849 143.778351,377.897705 
	C143.646423,378.335480 143.514496,378.773254 143.382584,379.211029 
	C142.416611,379.211029 141.433884,379.328461 140.487152,379.193512 
	C125.191521,377.012939 109.891808,374.857697 94.614738,372.552704 
	C91.011803,372.009094 88.512405,372.487000 87.375717,376.501099 
	C86.062866,381.137238 84.165604,385.606567 82.819748,390.234894 
	C80.061424,399.720703 84.562637,407.230621 94.239296,409.645844 
	C181.052917,431.313782 267.845642,453.065887 354.684814,474.630920 
	C454.763489,499.483734 554.370605,526.145325 654.069824,552.453552 
	C730.446167,572.607483 806.816040,592.789612 883.072632,613.389099 
	C891.731689,615.728271 898.244446,615.119629 904.740723,608.887146 
	C909.364502,604.450989 909.579590,603.323486 903.764160,600.716919 
	C884.468445,592.068726 865.166321,583.434570 845.913025,574.692688 
	C843.774292,573.721558 841.113281,573.525696 838.648865,570.356201 
	C863.831299,576.998352 887.823547,583.326599 911.652466,589.611755 
	C917.228271,580.149841 916.639160,578.133423 907.649414,574.475525 
	C905.645386,573.660217 903.588318,572.971863 901.602112,572.117004 
	C895.251343,569.383789 888.891479,566.659363 882.237488,562.511597 
	C886.422913,561.337097 889.647278,560.632996 893.179810,561.122070 
	C900.584106,562.147034 908.059448,562.697998 915.431641,563.897888 
	C918.801514,564.446411 919.920471,563.119080 920.624939,560.314026 
	C922.972900,550.964600 925.125671,541.552612 927.904541,532.330750 
	C929.322632,527.624756 927.611328,525.813416 923.581360,524.178955 
	C908.618469,518.110352 893.755554,511.794952 878.863708,505.551819 
	C877.788147,505.100952 876.125977,505.174713 876.370911,502.869751 
	C882.468384,503.964325 888.454712,505.091492 894.460205,506.105499 
	C905.431885,507.958099 916.416565,509.733429 927.392212,511.562866 
	C931.203247,512.198120 933.765137,511.264252 934.650024,506.974243 
	C935.622559,502.259064 937.039978,497.634094 938.313110,492.983368 
	C938.804260,491.189301 938.788025,489.555939 936.796753,488.823303 
	C926.862610,485.168274 920.804321,477.055756 914.621094,469.244415 
	C910.873901,464.510620 906.368103,462.655579 900.489441,462.220764 
	C882.738953,460.907959 866.466736,456.052979 854.445251,441.647430 
	C849.843872,436.133514 843.873108,432.949310 836.756531,431.183838 
	C768.984985,414.370819 701.428101,396.730560 634.200623,377.847412 
	C632.030640,377.237946 629.949341,377.022156 627.838562,377.761444 
	C609.738647,384.101288 593.830444,378.549835 578.845093,368.557281 
	C576.162720,366.768616 573.500305,365.248322 570.394287,364.468536 
	C564.270874,362.931152 558.132690,361.447113 552.036011,359.809418 
	C475.612030,339.280060 398.844879,320.020691 322.848145,297.914703 
	C318.809937,296.740112 315.496704,296.435608 312.743195,300.208618 
	C311.269836,302.227539 308.822723,302.600769 306.579468,303.195801 
	C298.134705,305.435852 289.736908,304.161255 281.340088,302.820343 
	C260.447601,299.484039 240.213867,293.355286 219.788452,288.080841 
	C214.127548,286.619049 209.267578,286.059998 204.349152,289.854095 
	C202.594345,291.207764 200.095779,291.741608 197.848907,292.289764 
	C182.804733,295.959869 168.881821,293.274902 155.795914,285.066406 
	C148.940521,280.766144 146.453293,281.648102 143.134598,289.099213 
	C140.696182,294.573883 136.957275,298.863220 132.567230,302.821960 
	C127.029716,307.815430 120.632149,311.491394 113.051529,315.325409 
	C125.324707,320.069794 136.592667,323.742798 148.272415,327.136322 
	C146.984024,328.528717 145.933044,328.317963 144.959610,328.371948 
	C133.259613,329.020844 121.734032,327.260834 110.212601,325.679596 
	C107.029297,325.242706 105.185646,325.855743 104.155777,329.083801 
	C102.133232,335.423370 99.990135,341.732788 97.621239,347.949677 
	C96.569153,350.710785 97.416641,352.296234 99.598221,353.806885 
	C102.465393,355.792206 105.271561,357.873596 108.013206,360.029114 
	C109.564430,361.248718 111.007568,362.700134 107.579910,363.595062 
M300.944214,486.770355 
	C260.411530,476.733856 219.881027,466.688446 179.344299,456.668365 
	C171.179474,454.650177 171.133453,454.687286 169.517014,462.654480 
	C161.311478,503.098328 160.935867,543.709106 168.659470,584.158508 
	C182.734894,657.873108 216.674393,720.917114 271.783936,772.253906 
	C274.171021,774.477661 276.465485,776.907349 280.026855,775.489685 
	C283.574005,774.077698 285.193054,771.134155 285.671967,767.329346 
	C286.675690,759.354614 289.949738,756.153625 297.969666,754.563660 
	C300.693695,754.023621 303.411499,753.578064 305.432892,751.064941 
	C312.203522,742.647156 313.791992,733.632141 309.619781,723.541260 
	C307.587189,718.625244 306.263733,713.539978 305.966583,708.081726 
	C305.535217,700.157837 307.079681,693.069763 311.202820,686.193054 
	C315.227692,679.480347 313.225311,674.999939 306.042328,671.853821 
	C304.564850,671.206787 303.234009,670.047424 302.074097,668.885986 
	C298.660645,665.468079 295.389496,661.908630 292.020905,658.445190 
	C287.586945,653.886230 286.523865,648.371216 287.273224,642.293213 
	C287.557922,639.983643 287.980408,637.655518 287.925537,635.345642 
	C287.669708,624.572632 283.540070,616.151245 273.135773,613.773376 
	C269.505951,612.943726 266.586487,610.542908 264.135742,607.713318 
	C260.522217,603.541077 257.942169,593.894226 260.474884,590.994202 
	C264.353699,586.552979 268.082825,581.298523 274.022705,579.627563 
	C283.298584,577.018311 292.715729,575.042603 302.589203,576.536377 
	C310.726318,577.767456 319.166595,577.590759 326.437408,573.472229 
	C336.103333,567.997009 346.838715,565.459595 356.938690,561.229370 
	C365.002136,557.852234 373.679993,555.806274 381.947540,552.690857 
	C389.437408,549.868469 397.219177,547.828491 405.396149,548.987305 
	C413.308014,550.108459 421.201599,551.358154 429.111176,552.495911 
	C431.005798,552.768494 433.515717,553.690063 434.193726,551.023682 
	C434.805725,548.616943 432.449402,547.679688 430.655579,546.847290 
	C426.278137,544.815979 421.802917,542.990295 417.468689,540.873718 
	C415.761627,540.040039 413.403046,539.164917 413.806610,536.689087 
	C414.203003,534.257019 416.351166,533.295593 418.612762,532.983948 
	C426.027252,531.962341 433.447723,530.980286 440.875214,530.057922 
	C443.456390,529.737427 446.795593,530.430969 447.421082,526.953003 
	C448.133087,522.993774 444.170959,523.570312 442.025360,522.455139 
	C441.600677,522.234436 441.045074,522.279846 440.562317,522.154541 
	C418.024750,516.302917 395.517700,510.330841 372.944244,504.621155 
	C349.239716,498.625427 325.471741,492.880463 300.944214,486.770355 
M695.229980,761.829529 
	C704.377625,728.308411 704.963013,694.535461 697.613342,660.675476 
	C690.417114,627.523071 671.983154,603.255432 639.901123,590.579834 
	C624.443054,584.472290 607.961792,582.597900 591.576904,581.581787 
	C569.658691,580.222595 547.668152,579.990601 525.704895,579.418762 
	C516.745361,579.185425 516.367615,579.693848 516.359253,588.572510 
	C516.322693,627.551819 516.416626,666.531677 516.250061,705.510376 
	C516.079285,745.480652 515.648010,785.449829 515.360413,825.419617 
	C515.301331,833.640869 515.362366,833.604187 523.781250,833.721008 
	C531.941528,833.834229 540.103699,833.939636 548.259521,834.214722 
	C570.391418,834.961243 592.539246,835.681641 614.451904,831.599121 
	C654.540283,824.130310 683.008606,802.955017 695.229980,761.829529 
M676.659912,336.824463 
	C669.724670,325.750061 662.160828,315.196533 650.920471,308.012115 
	C630.360107,294.870789 608.217041,292.810608 588.405396,308.792053 
	C585.764160,310.922668 583.965027,310.057861 581.768433,308.690826 
	C572.346069,302.826874 562.234497,299.401550 550.993530,300.400848 
	C547.300842,300.729065 545.481934,299.057373 543.551147,296.041809 
	C535.245178,283.068878 524.467468,272.699463 509.192993,268.696472 
	C493.241913,264.516174 477.982208,268.196777 463.998535,276.032959 
	C457.341400,279.763489 451.229980,280.042572 444.122009,278.842102 
	C436.928436,277.627106 429.726288,277.501190 423.111816,282.378937 
	C417.918121,286.208923 411.881042,288.931000 405.304749,289.847992 
	C396.350098,291.096558 387.339508,289.940826 378.360779,290.339783 
	C374.479980,290.512268 370.736664,291.157959 366.921021,292.242065 
	C367.609833,294.239014 368.740082,294.409851 369.879547,294.729736 
	C377.884338,296.977081 385.835754,299.422668 393.872925,301.544861 
	C452.870087,317.122925 511.904266,332.561279 570.679077,348.968933 
	C575.422607,350.293152 579.365662,352.570679 583.085938,355.946808 
	C594.749084,366.531067 608.266602,370.712463 623.651855,365.409607 
	C628.643555,363.689148 633.285034,363.817017 638.277771,365.005768 
	C676.453125,374.095520 713.781128,386.338898 751.963684,395.406097 
	C781.068542,402.317627 809.795715,410.745422 839.004456,417.256775 
	C843.493164,418.257416 848.307556,418.434845 851.943665,421.910675 
	C855.555115,425.362946 859.365601,428.617065 862.846497,432.193909 
	C872.991455,442.618195 885.469299,447.833099 899.788269,448.638885 
	C909.774597,449.200867 918.433472,451.860870 924.002625,460.931061 
	C924.780640,462.198120 925.907166,463.245575 926.788879,464.455536 
	C930.824463,469.994141 936.271667,473.115021 942.980591,474.343658 
	C949.955933,475.621063 957.820923,471.915985 960.519836,465.847656 
	C963.215149,459.787109 961.677185,456.008331 954.066956,450.623596 
	C949.290222,447.243744 945.853699,442.858154 943.718689,437.468506 
	C942.249451,433.759491 941.064514,429.938721 939.635193,426.212860 
	C935.029419,414.206238 928.800110,403.293579 915.721863,399.110596 
	C908.793884,396.894745 906.549866,392.921936 905.515137,386.090332 
	C900.555603,353.345032 871.130676,336.278870 842.991028,337.633606 
	C825.942566,338.454315 811.284119,345.891754 798.708679,357.359070 
	C796.564636,359.314178 794.269043,361.019165 791.346985,361.266052 
	C782.791382,361.988861 774.810608,364.850067 766.741394,367.474396 
	C753.226013,371.869934 739.403442,374.746979 725.119751,374.303925 
	C716.786438,374.045410 709.564148,371.476562 705.167969,363.409271 
	C699.466370,352.946442 691.774353,344.363098 680.506653,339.537720 
	C679.307678,339.024261 678.301331,338.061096 676.659912,336.824463 
M346.907013,582.468445 
	C342.000854,584.575195 337.240204,586.946350 332.914215,590.116577 
	C317.651367,601.301453 309.787506,617.247925 304.262024,634.685974 
	C302.613129,639.889648 303.187439,640.693420 308.552032,641.562073 
	C313.959961,642.437683 319.384888,643.248840 324.747925,644.352661 
	C335.776642,646.622620 346.769012,649.069092 357.949799,651.480286 
	C358.498352,649.992615 359.044769,648.792297 359.388092,647.536438 
	C363.290131,633.262573 372.533386,624.796875 387.040924,622.046448 
	C399.397095,619.703979 412.783478,625.377380 418.178162,635.219177 
	C427.391937,652.028320 417.354004,674.954102 398.736542,679.460144 
	C392.901001,680.872498 386.934357,681.447021 380.923737,681.297119 
	C377.891449,681.221436 376.262848,682.284058 376.286682,685.612061 
	C376.368988,697.108154 376.368103,708.605591 376.285187,720.101685 
	C376.259430,723.673523 378.017639,724.686890 381.277191,724.617004 
	C386.438660,724.506287 391.619049,724.432312 396.767395,724.742432 
	C406.046814,725.301453 414.670959,727.916260 420.444824,735.724731 
	C427.083160,744.702332 427.015381,754.920349 424.549255,765.316467 
	C422.698578,773.118347 418.773071,779.446960 411.563477,783.403198 
	C397.797455,790.957153 375.819641,788.349548 364.171631,777.748779 
	C360.744965,774.630188 358.507111,770.767151 357.710785,766.190735 
	C356.688965,760.318359 355.928955,759.531982 349.848022,760.521301 
	C334.599548,763.002197 319.393890,765.746216 304.144684,768.222290 
	C301.117889,768.713806 300.326538,769.773010 300.888580,772.852356 
	C306.177979,801.833313 322.258942,821.894775 350.091309,831.884521 
	C373.062103,840.129333 396.690430,840.506287 420.472748,836.075562 
	C437.441498,832.914185 453.083954,826.700500 466.061127,814.888306 
	C482.857483,799.599670 488.573120,779.958008 487.565582,758.050049 
	C486.663208,738.428467 479.597900,721.464478 463.983093,708.719116 
	C458.549469,704.283936 452.390381,701.012695 445.727570,697.464905 
	C451.248413,693.844360 456.638672,690.895447 461.275543,686.867737 
	C477.430389,672.835388 482.840851,654.714111 481.746552,633.976013 
	C480.617584,612.581238 471.100281,596.233154 452.845947,585.002136 
	C440.902405,577.653870 427.676788,574.915771 413.884674,573.976379 
	C391.248260,572.434631 369.037720,574.022827 346.907013,582.468445 
M541.497620,264.018921 
	C554.634949,261.023254 568.173157,260.573517 581.325500,257.387177 
	C589.660034,255.368011 595.782104,251.761124 598.618530,243.465790 
	C600.039612,239.309433 603.184387,237.518326 607.346863,237.149170 
	C610.345764,236.883194 613.315369,236.980484 616.302795,237.492706 
	C623.535706,238.732880 630.756592,239.725372 638.115540,238.071976 
	C647.309692,236.006226 651.931519,225.106171 646.914490,217.302399 
	C642.446777,210.353027 635.665100,207.519089 628.032043,205.947189 
	C620.423645,204.380325 612.460632,203.809601 606.718079,197.388031 
	C605.065308,195.539825 602.454529,194.922699 600.024841,194.217957 
	C563.913696,183.743423 527.165771,179.574936 489.580780,182.082367 
	C462.254272,183.905396 435.436493,187.614227 409.936768,198.287766 
	C406.569153,199.697357 405.214478,200.866318 406.433075,204.740143 
	C412.121124,222.822174 417.627136,240.963470 422.966858,259.151489 
	C424.085449,262.961731 426.160339,264.000153 429.830536,263.990601 
	C434.203949,263.979187 438.302063,261.674866 442.665741,262.474854 
	C459.454285,265.552734 474.769104,259.106598 489.469757,253.302887 
	C499.720032,249.256149 507.873016,251.096298 516.535400,254.775696 
	C524.472412,258.147034 532.000122,262.480408 541.497620,264.018921 
M823.311707,622.307190 
	C799.793396,616.250000 776.246582,610.300293 752.778687,604.053589 
	C747.486389,602.644836 742.892883,603.834351 738.338318,606.027222 
	C735.822815,607.238403 733.868896,609.313293 734.405457,612.366699 
	C735.431274,618.204346 732.277466,621.854919 728.194641,625.060425 
	C718.653687,632.551514 715.177673,646.824890 718.632507,657.536499 
	C729.051575,689.840332 729.274109,722.621399 724.673584,755.802734 
	C723.263611,765.971680 719.549194,775.778625 720.146851,786.270386 
	C720.429565,791.232605 721.317566,792.191467 726.219116,791.206604 
	C732.452820,789.953979 736.672302,785.391235 741.076965,781.492920 
	C769.474365,756.360596 793.552002,727.589111 812.786865,694.858582 
	C823.863342,676.010498 833.336426,656.385742 840.517334,635.708252 
	C842.402832,630.279053 840.636963,627.091736 835.182678,625.493835 
	C831.511780,624.418274 827.803772,623.469604 823.311707,622.307190 
M263.721710,285.629150 
	C273.139679,287.662048 282.470154,290.114288 292.041931,291.405518 
	C298.333588,292.254242 305.329163,289.474182 307.357086,285.213257 
	C309.778870,280.124695 308.059784,273.866394 303.041351,269.005615 
	C299.024384,265.114868 293.962219,263.501770 288.723633,262.421753 
	C279.050781,260.427551 270.318542,256.431763 262.996307,249.870804 
	C250.530670,238.701248 235.902863,234.001831 219.424561,234.470352 
	C216.425613,234.555603 214.116180,233.745468 211.674301,231.914581 
	C195.420654,219.727814 177.777069,211.832428 156.722046,213.184845 
	C136.253647,214.499603 119.260582,226.807022 113.037720,246.270126 
	C110.989616,252.675888 108.232445,258.549713 104.532631,264.190430 
	C98.711533,273.065369 94.544952,282.673828 95.302307,293.690613 
	C95.760551,300.356323 99.248909,302.906616 105.708694,301.244568 
	C110.761192,299.944580 115.230469,297.381653 119.615791,294.602814 
	C126.080650,290.506256 130.769012,284.751801 135.375214,278.794098 
	C141.982590,270.248047 147.680283,268.837982 157.685745,272.832520 
	C159.685486,273.630890 161.631195,274.640930 163.458511,275.782715 
	C177.292358,284.426727 191.084717,284.133636 204.813828,275.624786 
	C207.351196,274.052216 209.904724,273.243042 212.859711,273.927917 
	C229.536728,277.793182 246.215851,281.649384 263.721710,285.629150 
M405.646881,99.840256 
	C399.667511,97.177223 393.481049,95.443474 386.871033,95.360123 
	C368.744324,95.131554 353.165710,102.115906 338.799377,112.399666 
	C334.927765,115.171059 331.001770,117.035995 326.112335,117.576721 
	C319.336273,118.326088 312.761230,120.332016 306.645020,123.536537 
	C292.353912,131.024200 285.320312,146.411148 287.932251,161.492020 
	C289.992859,173.389786 302.401489,175.455276 309.592407,169.237579 
	C313.371643,165.969818 316.971619,162.488358 320.832458,159.322815 
	C328.179199,153.299194 336.574188,149.447052 346.166534,151.024094 
	C359.411133,153.201553 371.123199,150.133957 381.151245,141.702164 
	C392.458221,132.195038 404.667694,129.018356 418.677734,134.104507 
	C422.031708,135.322113 423.754028,133.900253 424.968964,131.151352 
	C427.731659,124.900536 426.302612,119.132095 422.707794,113.712227 
	C418.621887,107.552032 412.671234,103.610191 405.646881,99.840256 
M315.277863,181.085266 
	C313.496307,185.340393 313.970764,189.559357 315.610138,193.702896 
	C316.480560,195.902893 318.150177,197.199005 320.624359,197.091476 
	C326.012024,196.857285 330.305328,192.792145 331.011871,187.405167 
	C331.219116,185.825134 331.241882,184.088211 333.003113,183.045288 
	C334.683685,185.696869 331.225128,188.067902 333.016296,191.142746 
	C342.647339,187.963089 353.098663,179.177643 360.735016,193.710266 
	C374.688202,185.365219 389.449615,181.152130 403.932190,176.265533 
	C417.366150,171.732773 417.399841,171.801910 415.623840,157.722321 
	C415.458496,156.411636 415.170349,155.093811 414.750641,153.842545 
	C413.883514,151.257492 406.855713,146.208267 404.434326,146.560562 
	C399.654755,147.256027 394.752350,147.905411 390.707886,150.762115 
	C377.779938,159.893463 363.313934,163.316406 347.679749,164.733856 
	C335.524719,165.835892 324.371582,171.211823 315.277863,181.085266 
M320.266235,270.391724 
	C322.145508,273.651001 321.213715,278.838226 325.064301,280.440948 
	C335.856873,284.933075 346.883881,288.857269 358.858185,284.379578 
	C366.939240,281.357727 369.768280,275.961609 367.132355,267.835114 
	C362.460327,253.431320 357.826721,239.014633 353.062103,224.641449 
	C351.264984,219.220154 350.734863,219.320969 345.647552,221.644302 
	C334.864075,226.568970 326.194336,234.893219 315.480743,240.002899 
	C312.163635,241.584961 310.114594,246.179642 311.817322,249.926682 
	C314.772919,256.430695 316.054779,263.601562 320.266235,270.391724 
M370.682373,200.111633 
	C365.150177,204.089813 363.887573,209.397736 366.306213,215.518265 
	C368.728912,221.649109 369.199677,228.523483 373.540619,233.960312 
	C374.468628,235.122681 374.747498,237.155075 374.623352,238.731384 
	C374.377167,241.857635 375.922119,244.546326 376.275360,247.415710 
	C377.065460,253.834061 381.518188,259.049591 381.561829,265.728638 
	C381.586365,269.485168 385.123688,271.910980 387.175812,274.814941 
	C388.378632,276.517029 391.179993,276.264374 392.555939,274.641205 
	C395.665710,270.972565 398.792145,271.633942 402.229980,273.823578 
	C403.361938,274.544586 404.539124,275.239685 405.986145,274.055511 
	C406.416779,271.962982 405.775787,269.422424 407.802002,267.686401 
	C409.862946,265.920624 409.897003,263.703033 409.275116,261.299774 
	C404.282745,242.006271 400.496002,222.380493 393.398987,203.667526 
	C391.685272,199.148911 388.232025,196.861542 383.561066,196.371384 
	C379.072968,195.900406 375.035370,197.329117 370.682373,200.111633 
M481.507294,865.023682 
	C488.602417,866.033020 495.746246,866.086914 502.866028,865.672363 
	C509.631592,865.278320 511.191315,861.623352 508.530670,855.493835 
	C505.531982,848.585632 500.128784,844.707947 493.827332,841.501343 
	C492.373352,840.761414 490.970673,840.502502 489.557587,841.248718 
	C484.034485,844.165466 478.315002,846.799866 473.133240,850.239319 
	C470.120941,852.238892 468.136505,855.910461 468.783936,859.733032 
	C469.473572,863.804932 473.461212,863.893372 476.655060,864.591797 
	C477.941498,864.873047 479.289886,864.871033 481.507294,865.023682 
M771.116577,308.361084 
	C767.966370,302.162292 760.863037,300.261963 756.641418,294.642822 
	C753.254456,290.134521 747.140991,286.666321 741.787231,283.361115 
	C740.450623,282.535919 739.180603,281.673920 737.715515,282.801483 
	C736.223938,283.949371 735.882996,285.644409 736.579468,287.287720 
	C737.079468,288.467316 738.016785,289.494354 738.882751,290.480835 
	C745.299744,297.791077 750.412720,306.050720 757.716736,312.829132 
	C763.675354,318.359009 768.261963,325.548676 774.504333,331.076324 
	C776.254700,332.626221 777.862854,334.594421 780.531616,333.591644 
	C783.061401,332.641113 782.627441,330.138123 783.075867,328.075073 
	C783.461975,326.298828 783.124878,324.879700 782.057312,323.430267 
	C778.516785,318.623047 775.062744,313.752136 771.116577,308.361084 
z"/>
<path fill="#000000" opacity="1.000000" stroke="none" 
	d="
M466.100372,419.437683 
	C472.343903,405.303955 478.549500,391.486694 484.427094,377.531342 
	C485.992462,373.814606 487.910919,372.906921 491.628418,374.116241 
	C497.594330,376.056946 503.954956,376.684082 509.657349,379.123535 
	C510.391724,381.662506 508.832153,383.253906 507.972198,384.930420 
	C495.209290,409.812805 482.303680,434.622223 469.613342,459.541382 
	C467.876343,462.952240 465.984711,464.211029 462.239258,463.113129 
	C457.136993,461.617554 451.968170,460.290680 446.757263,459.242401 
	C442.622925,458.410706 441.358673,456.257935 441.883392,452.196136 
	C443.710907,438.050171 444.523163,423.814972 445.387360,408.290436 
	C438.220032,421.954926 431.430420,434.469818 425.093811,447.210022 
	C422.837433,451.746643 420.389404,453.342407 415.393433,451.576660 
	C410.712860,449.922424 405.748840,449.043427 400.878754,447.962036 
	C397.783966,447.274872 396.414246,445.672485 396.670380,442.379456 
	C397.547516,431.102631 398.242859,419.811890 399.052704,408.529663 
	C399.945251,396.094940 400.903473,383.664917 401.800537,371.230530 
	C402.159576,366.253693 402.487366,361.273254 402.722198,356.289398 
	C402.858765,353.391693 404.073608,352.502655 406.910614,353.288452 
	C412.360413,354.797943 417.828705,356.277863 423.356354,357.455444 
	C426.822449,358.193817 427.467407,360.229919 427.143860,363.267670 
	C425.367523,379.947418 423.636902,396.632080 422.097473,413.791382 
	C424.043365,408.416016 427.722198,407.209900 432.778503,408.385406 
	C436.459412,409.241150 438.123840,407.093262 437.780609,403.569977 
	C437.523346,400.928925 437.312714,398.121460 436.257904,395.755127 
	C434.328552,391.426666 435.443146,387.779968 437.449432,383.945282 
	C440.382202,378.339935 443.123383,372.632843 445.872253,366.933472 
	C447.060394,364.469971 448.569946,363.732666 451.446869,364.348206 
	C466.516388,367.572388 466.712341,367.487183 466.232819,382.630768 
	C465.874939,393.932861 464.943848,405.216125 464.392792,416.513855 
	C464.331482,417.771118 463.491119,419.449554 465.261688,420.380219 
	C465.328522,420.415344 465.539062,420.224976 465.652527,420.109985 
	C465.767700,419.993347 465.845428,419.839783 466.100372,419.437683 
z"/>
<path fill="#000000" opacity="1.000000" stroke="none" 
	d="
M229.127319,405.101410 
	C225.990738,403.816803 227.138214,401.709412 227.591187,399.868500 
	C231.877914,382.446991 236.185379,365.030579 240.526489,347.622559 
	C242.858765,338.269989 245.414322,328.970093 247.563782,319.576599 
	C248.317062,316.284576 249.591858,315.562225 252.738052,316.484161 
	C257.835449,317.977875 263.007599,319.285156 268.222351,320.283966 
	C271.357727,320.884552 272.640411,322.560120 273.347961,325.463165 
	C276.574158,338.699921 279.956207,351.898621 283.248291,365.119476 
	C283.640808,366.695862 283.828674,368.322876 285.431213,370.411346 
	C287.615723,361.161865 289.660675,352.534088 291.688965,343.902374 
	C292.677185,339.696869 293.731720,335.503326 294.571686,331.267822 
	C295.145630,328.373688 296.535309,327.272308 299.473816,328.067383 
	C304.123718,329.325531 308.777191,330.606598 313.490295,331.582794 
	C316.935852,332.296448 317.622345,333.785522 316.722565,337.197205 
	C310.111908,362.262451 303.729279,387.387695 297.209686,412.477173 
	C294.803162,421.738251 294.837646,420.895081 285.553436,419.602692 
	C275.455048,418.196930 271.042389,413.349945 269.175598,403.442108 
	C266.788086,390.770508 262.599548,378.438293 258.971619,365.171722 
	C255.632629,378.779694 252.365829,391.529541 249.435745,404.356323 
	C248.475708,408.559052 246.832703,409.907166 242.564987,408.466095 
	C238.332901,407.037048 233.878189,406.267334 229.127319,405.101410 
z"/>
<path fill="#000000" opacity="1.000000" stroke="none" 
	d="
M657.169312,513.132690 
	C648.604126,510.890656 640.446777,508.742371 631.639709,506.423004 
	C633.805298,498.019592 635.809937,490.019257 637.932007,482.050140 
	C643.231140,462.150482 648.572937,442.262115 653.921143,422.375549 
	C655.625427,416.038330 656.014709,415.872986 662.597900,417.587341 
	C671.437317,419.889252 680.373169,421.863525 689.116821,424.482056 
	C710.066956,430.756226 719.669556,445.470612 717.180115,467.151855 
	C716.149597,476.126831 713.815918,484.820923 709.602234,492.825165 
	C699.449219,512.111755 683.289917,519.040222 660.977295,513.983826 
	C659.844849,513.727234 658.710571,513.478760 657.169312,513.132690 
M666.428955,473.801605 
	C665.248291,478.305725 664.143372,482.831696 662.853943,487.304443 
	C662.237488,489.443024 662.675537,490.706635 664.793762,491.661560 
	C671.524719,494.695892 679.785767,492.761505 683.997864,486.674255 
	C689.673584,478.471832 691.983887,469.162750 691.959351,459.291290 
	C691.936951,450.304474 688.689148,446.387817 680.071411,443.823639 
	C676.415833,442.735962 674.412903,443.715210 673.454163,447.451691 
	C671.262878,455.991730 668.910156,464.490356 666.428955,473.801605 
z"/>
<path fill="#000000" opacity="1.000000" stroke="none" 
	d="
M798.231934,541.023499 
	C797.650085,546.472839 795.201538,547.709351 790.393677,546.041382 
	C785.542969,544.358521 780.445007,543.393250 775.465454,542.075378 
	C773.109253,541.451721 771.758118,540.417786 772.562439,537.465454 
	C780.120789,509.718658 787.554260,481.937927 795.058777,454.176422 
	C795.351074,453.095154 795.996094,452.109161 796.688904,450.624298 
	C810.334595,454.598999 824.445740,456.317383 837.470642,462.035614 
	C861.370483,472.528198 858.152100,502.220184 842.751160,514.624634 
	C839.677368,517.100403 836.149780,519.012756 832.598328,521.337524 
	C835.198547,533.529358 837.807617,545.762634 840.583801,558.779785 
	C831.544922,557.246826 823.803406,554.905151 816.055847,552.631470 
	C814.256409,552.103333 813.923767,550.330505 813.609863,548.606750 
	C812.122253,540.438416 810.546204,532.286133 808.982178,524.131897 
	C808.615723,522.221130 808.722229,519.789368 806.020752,519.597412 
	C802.763123,519.365906 803.149780,522.411804 802.610657,524.228333 
	C801.004272,529.641602 799.721252,535.150879 798.231934,541.023499 
M809.891602,498.270172 
	C809.979248,498.585022 809.962769,499.037506 810.169983,499.194336 
	C814.078430,502.151917 820.541138,502.290558 824.154785,499.531158 
	C827.704224,496.820801 829.968140,488.531128 828.434570,483.859924 
	C827.353699,480.567230 821.656067,477.163086 817.510925,477.036621 
	C815.443726,476.973572 814.881653,478.227234 814.502441,479.682251 
	C812.951782,485.631989 811.492126,491.605438 809.891602,498.270172 
z"/>
<path fill="#000000" opacity="1.000000" stroke="none" 
	d="
M537.036011,420.178162 
	C539.622070,410.643250 542.162170,401.517944 544.494385,392.339874 
	C545.257446,389.336792 546.673462,388.036804 549.778015,388.859039 
	C560.695679,391.750549 571.695801,394.360382 582.521667,397.560699 
	C594.271667,401.034302 602.907410,408.353577 603.986206,421.086365 
	C605.108643,434.334167 600.428589,445.945099 588.523438,452.963287 
	C583.342957,456.017273 582.444580,458.798553 583.897888,464.346466 
	C586.449829,474.088593 587.990295,484.095642 590.111816,494.784882 
	C581.257202,493.642181 573.474182,490.926880 565.566345,488.824524 
	C563.896484,488.380554 563.819214,486.580109 563.533997,485.098083 
	C561.934265,476.784821 560.287415,468.480530 558.712524,460.162598 
	C558.335449,458.171417 558.210083,455.812653 555.727173,455.594482 
	C552.952332,455.350708 552.956421,458.043274 552.467041,459.828461 
	C550.666504,466.396576 548.969238,472.994171 547.330139,479.604767 
	C546.577820,482.638947 545.061096,483.671600 541.902466,482.751434 
	C536.644104,481.219574 531.337830,479.773438 525.965515,478.738586 
	C522.181580,478.009705 522.093262,476.115295 522.919067,473.058868 
	C527.642456,455.577881 532.257324,438.067566 537.036011,420.178162 
M573.394165,416.060883 
	C570.705750,414.835938 568.005798,413.661957 564.779541,413.956421 
	C562.315125,420.245209 561.182434,426.776794 559.481201,433.142975 
	C558.891479,435.349762 560.051941,436.383759 562.120605,437.085907 
	C567.831726,439.024414 572.951599,437.585327 575.676880,433.041504 
	C579.112549,427.313232 578.427429,420.281342 573.394165,416.060883 
z"/>
<path fill="#000000" opacity="1.000000" stroke="none" 
	d="
M324.069885,428.031403 
	C312.700317,419.301544 309.047729,407.553497 309.905762,394.255280 
	C310.594482,383.580902 313.268951,373.271942 317.907837,363.542450 
	C332.201508,333.563477 363.779053,336.999298 380.905731,349.580872 
	C389.397949,355.819397 392.622131,365.148193 393.191833,375.325043 
	C393.973145,389.281311 390.667938,402.441467 384.172729,414.732910 
	C374.893646,432.292542 359.176300,439.339691 339.840729,434.889191 
	C334.287415,433.610992 328.986328,431.708832 324.069885,428.031403 
M361.129547,405.508667 
	C364.472839,396.621368 367.604736,387.687134 368.632202,378.152252 
	C369.466888,370.407104 366.744934,365.375214 360.800842,361.762268 
	C355.350311,358.449341 351.592102,361.180817 347.875122,364.351807 
	C346.153259,365.820770 344.784027,367.880646 343.723145,369.916626 
	C338.731995,379.495117 335.979279,389.776276 335.446228,400.518433 
	C334.957306,410.370880 341.859985,416.378418 350.860443,414.478790 
	C355.623596,413.473480 358.870056,410.601227 361.129547,405.508667 
z"/>
<path fill="#000000" opacity="1.000000" stroke="none" 
	d="
M751.799133,536.355225 
	C738.679321,533.006470 725.968750,529.724182 713.262878,526.423706 
	C712.638123,526.261414 712.054565,525.940979 710.770752,525.415344 
	C712.392029,519.193909 713.968262,512.989563 715.627136,506.807373 
	C721.572937,484.648651 727.654175,462.525330 733.410339,440.317657 
	C734.439880,436.345917 736.103394,435.696686 739.710449,436.641937 
	C754.017944,440.391479 768.351440,444.048340 782.725342,447.533112 
	C786.263306,448.390808 787.486938,449.842346 786.290710,453.417450 
	C784.974060,457.352753 783.812134,461.360535 782.921936,465.411285 
	C782.202087,468.687195 780.602783,469.198547 777.569641,468.428497 
	C771.131042,466.794006 764.535828,465.748627 758.147217,463.954590 
	C754.171204,462.838043 752.520569,464.052124 751.994934,467.839966 
	C751.836365,468.982269 751.470337,470.121246 751.034546,471.194855 
	C749.727478,474.414948 750.570679,476.116089 754.164612,476.814941 
	C760.034119,477.956238 765.818054,479.530426 771.662415,480.811127 
	C775.182373,481.582458 776.938965,482.980408 775.430725,487.003937 
	C773.977417,490.881042 773.043091,494.964661 772.054932,499.000183 
	C771.307129,502.054016 769.702393,503.006134 766.629333,502.212311 
	C760.514526,500.632721 754.314270,499.380920 748.209412,497.766663 
	C745.281250,496.992340 743.838623,497.876343 743.105957,500.719635 
	C739.719299,513.862915 738.115723,510.794312 749.986511,514.032837 
	C754.955994,515.388550 759.955505,516.697632 765.012451,517.650085 
	C769.206482,518.440002 770.300537,520.423828 768.669495,524.253235 
	C768.219604,525.309570 768.122681,526.511536 767.807678,527.630859 
	C764.423828,539.656921 764.420715,539.656067 751.799133,536.355225 
z"/>
<path fill="#000000" opacity="1.000000" stroke="none" 
	d="
M185.293015,396.065155 
	C178.227982,393.951447 172.569138,390.192322 167.295547,385.773651 
	C165.888550,384.594727 164.300125,383.477448 165.343140,381.217438 
	C167.834549,375.818970 170.307938,370.412201 172.860718,364.851685 
	C176.889526,366.671722 179.022263,369.823914 182.036911,371.827667 
	C185.384857,374.052856 188.805557,376.008362 192.710281,377.136444 
	C195.503281,377.943298 198.084290,377.914642 200.092102,375.717621 
	C202.266510,373.338348 201.978699,370.547668 200.701706,367.777527 
	C199.010605,364.109009 196.517181,360.980408 194.009094,357.871155 
	C190.769318,353.854797 187.280472,350.027008 184.219788,345.881104 
	C177.802444,337.188324 175.856003,327.664307 180.940140,317.763702 
	C185.873398,308.156891 194.544678,304.709747 204.980621,304.640289 
	C215.464783,304.570526 224.934494,307.639496 233.772049,313.097473 
	C237.084503,315.143158 237.737976,317.487488 235.796585,320.968231 
	C233.300003,325.444336 231.182816,330.132080 229.028198,334.474670 
	C226.511627,334.824585 225.606552,333.153534 224.341766,332.190979 
	C220.748093,329.455872 217.093170,326.875641 212.589233,325.810577 
	C209.912643,325.177673 207.119781,324.637970 205.229614,327.145020 
	C203.176346,329.868408 204.409210,332.746704 206.234482,334.945648 
	C209.737137,339.165436 213.591141,343.094116 217.310104,347.133698 
	C222.092072,352.327911 226.179382,357.839905 227.663376,365.026733 
	C230.671631,379.595581 219.634354,395.255676 204.945343,397.364105 
	C198.375732,398.307098 192.032501,397.743439 185.293015,396.065155 
z"/>
<path fill="#000000" opacity="1.000000" stroke="none" 
	d="
M632.093079,461.888367 
	C628.732300,474.325317 625.364868,486.338043 622.271118,498.420868 
	C621.287231,502.263580 619.800903,503.762543 615.686890,502.329010 
	C610.986084,500.691010 606.125916,499.441071 601.257812,498.374603 
	C597.480408,497.547028 596.479248,495.942078 597.546631,492.082336 
	C603.310242,471.240692 608.839355,450.334167 614.441284,429.447906 
	C616.165222,423.020447 618.010681,416.620148 619.507874,410.139801 
	C620.179626,407.232208 621.451477,406.805450 624.088074,407.543488 
	C629.533447,409.067871 635.009583,410.549652 640.555176,411.626068 
	C644.442566,412.380646 644.871826,414.269531 643.945923,417.645935 
	C639.944458,432.238129 636.096375,446.872375 632.093079,461.888367 
z"/>
<path fill="#000000" opacity="1.000000" stroke="none" 
	d="
M576.718628,752.000000 
	C576.826538,725.506470 576.727783,699.509705 577.142029,673.521057 
	C577.311829,662.865479 577.782898,652.207031 577.582336,641.550232 
	C577.513489,637.889526 578.788025,636.637390 582.374695,636.426575 
	C598.111633,635.501831 613.402710,636.374451 626.569946,646.491882 
	C637.133545,654.608826 641.884949,666.195496 644.000244,678.687073 
	C648.010559,702.369324 647.736694,726.037659 641.271912,749.390503 
	C636.086914,768.120605 623.461182,778.416077 604.168274,780.510620 
	C595.197693,781.484558 586.313110,781.236694 576.718445,781.241333 
	C576.718445,771.386292 576.718445,761.943176 576.718628,752.000000 
M610.706482,681.898010 
	C612.713684,683.120911 614.754272,683.598450 616.292725,681.341431 
	C617.233215,679.961731 616.714905,678.464111 615.551941,677.347534 
	C614.096252,675.949768 612.295227,675.621887 610.608032,676.704529 
	C608.661438,677.953552 608.988525,679.687988 610.706482,681.898010 
z"/>
</svg>