<svg id="Слой_1" data-name="Слой 1" xmlns="http://www.w3.org/2000/svg" viewBox="0 0 20.41 20.41"><path d="M5.24,1a0,0,0,0,1,0,0v4.2a0,0,0,0,1,0,0H1a0,0,0,0,1,0,0V1A0,0,0,0,1,1,1h4.2m0-1H1A1,1,0,0,0,0,1v4.2a1,1,0,0,0,1,1h4.2a1,1,0,0,0,1-1V1a1,1,0,0,0-1-1Z"/><path d="M12.31,1s0,0,0,0v4.2s0,0,0,0H8.1s0,0,0,0V1s0,0,0,0h4.21m0-1H8.1a1,1,0,0,0-1,1v4.2a1,1,0,0,0,1,1h4.21a1,1,0,0,0,1-1V1a1,1,0,0,0-1-1Z"/><path d="M12.31,15.13s0,0,0,0v4.21a0,0,0,0,1,0,0H8.1a0,0,0,0,1,0,0V15.17s0,0,0,0h4.21m0-1H8.1a1,1,0,0,0-1,1v4.21a1,1,0,0,0,1,1h4.21a1,1,0,0,0,1-1V15.17a1,1,0,0,0-1-1Z"/><path d="M19.38,15.13s0,0,0,0v4.21a0,0,0,0,1,0,0H15.17s0,0,0,0V15.17a0,0,0,0,1,0,0h4.21m0-1H15.17a1,1,0,0,0-1,1v4.21a1,1,0,0,0,1,1h4.21a1,1,0,0,0,1-1V15.17a1,1,0,0,0-1-1Z"/><path d="M5.24,8.07s0,0,0,0v4.21s0,0,0,0H1s0,0,0,0V8.1s0,0,0,0h4.2m0-1H1a1,1,0,0,0-1,1v4.21a1,1,0,0,0,1,1h4.2a1,1,0,0,0,1-1V8.1a1,1,0,0,0-1-1Z"/><rect x="14.13" width="6.28" height="6.28" rx="1.04"/><rect y="14.13" width="6.28" height="6.28" rx="1.04"/><rect x="7.07" y="7.07" width="6.28" height="6.28" rx="1.04"/><path d="M19.38,8.07a0,0,0,0,1,0,0v4.21a0,0,0,0,1,0,0H15.17s0,0,0,0V8.1s0,0,0,0h4.21m0-1H15.17a1,1,0,0,0-1,1v4.21a1,1,0,0,0,1,1h4.21a1,1,0,0,0,1-1V8.1a1,1,0,0,0-1-1Z"/></svg>